<svg width="1280" height="800" xmlns="http://www.w3.org/2000/svg" xml:space="preserve" version="1.1">

 <g>
  <title>Layer 1</title>
  <path fill="#CEB54D" id="svg_15" d="m1109.89905,441.41983l-310.50006,0c-6.59998,0 -12,-5.40002 -12,-12l0,-64.10004c0,-6.59998 5.40002,-12 12,-12l310.39996,0c6.6001,0 12,5.40002 12,12l0,64.10004c0.1001,6.59998 -5.29993,12 -11.8999,12z"/>
  <path id="svg_1" d="m807.29999,441.39999l-310.5,0c-6.60001,0 -12,-5.39999 -12,-12l0,-64.10001c0,-6.59998 5.39999,-12 12,-12l310.39996,0c6.60004,0 12,5.40002 12,12l0,64.10001c0.10004,6.60001 -5.29993,12 -11.89996,12z"/>
  <rect id="svg_2" fill="none" height="45.9" width="315.3" class="st0" y="376.8" x="508"/>
  <circle id="svg_4" fill="#CEB54D" r="44" cy="397.3" cx="492.4" class="st1"/>
  <g id="XMLID_4_">
   <path id="svg_5" d="m525.90002,382.5l-3.90002,14.39999l-0.39996,1l-5.10004,16.10001c0,0 0,0 0,0c-2,4.70001 -6.09998,8.10001 -10.59998,10.39999c-4.5,2.30002 -9.5,3.39999 -13.5,3.39999c-4,0 -8.89999,-1.09998 -13.5,-3.39999c-4.5,-2.29999 -8.60001,-5.69998 -10.60001,-10.39999c0,0 0,0 0,0l-5.10001,-16.10001l-0.39999,-1l-3.89999,-14.39999l5.79999,2.70001c0.89999,-1 2,-2.10001 4.20001,-3.5l3.39999,-7.80002l5.60001,4.89999c2.89999,-0.79999 5.79999,-1.5 9.19998,-1.5l5.20001,-5.59998l5.20001,5.59998c3.39999,-0.09998 6.39999,0.70001 9.19998,1.5l5.60004,-4.89999l3.39996,7.80002c2.20001,1.39999 3.29999,2.5 4.20001,3.5l6,-2.70001z"/>
   <g id="XMLID_6_">
    <g id="svg_6">
     <path id="svg_7" fill="#CEB54D" d="m514.40002,402.70001l-3.30002,4.79999l-6.29999,2.10001l-12.10001,-7.60001c-0.10001,-0.09998 -0.29999,-0.09998 -0.39999,0l-12.10001,7.60001l-6.29999,-2.10001l-3.30002,-4.79999c1.20001,-2.60001 3.5,-4.89999 6.90002,-6.70001c3.89999,-2.09998 9.19998,-3.39999 15,-3.39999c5.69998,0 11,1.30002 15,3.39999c3.29996,1.79999 5.69998,4.10001 6.89999,6.70001z" class="st1"/>
    </g>
    <g id="svg_8"/>
   </g>
   <g id="XMLID_5_">
    <g id="svg_9">
     <path id="svg_10" fill="#CEB54D" d="m522.29999,387l-2.79999,9.10001l-1.70001,5l-1.59998,-0.5c0,0 -0.10004,0 -0.10004,0c-1.59998,-2.70001 -4.19998,-5.10001 -7.5,-6.80002c-4.39999,-2.29999 -10,-3.69998 -16.19998,-3.69998c-6.20001,0 -11.89999,1.39999 -16.30002,3.69998c-3.29999,1.80002 -5.89999,4.10001 -7.39999,6.80002c0,0 -0.10001,0 -0.10001,0l-1.59998,0.39999l-1.70001,-5l-2.79999,-9.10001l2.79999,1.30002l0.60001,-0.70001c1.20001,-1.29999 1.80002,-2.20001 4.70001,-3.89999l0.29999,-0.20001l2.30002,-5.29999l4,3.5l0.69998,-0.20001c3.20001,-0.89999 6.30002,-1.69998 9.80002,-1.5l0.59998,0l4.10001,-4.39999l4.10001,4.39999l0.60001,0c3.5,-0.19998 6.5,0.70001 9.79999,1.5l0.70001,0.20001l4,-3.5l2.30002,5.29999l0.29999,0.20001c2.89996,1.79999 3.5,2.60001 4.70001,3.89999l0.59998,0.70001l2.79999,-1.20001z" class="st1"/>
    </g>
    <g id="svg_11"/>
   </g>
  </g>
  <text id="svg_16" font-size="63px" font-family="'PT Sans Caption'" fill="#CEB54D" class="st1 st2 st3" transform="matrix(1 0 0 1 546.13 420.879)">NIMBLE</text>
  <text x="293.26918" y="0.41767" id="svg_17" font-size="63px" font-family="'PT Sans Caption'" fill="#000000" class="st1 st2 st3" transform="matrix(1 0 0 1 546.13 420.879)">v1.11.11</text>
 </g>
</svg>